<?xml version="1.0" encoding="UTF-8"?>
<svg version="1.1" xmlns="http://www.w3.org/2000/svg" width="256" height="256">
<path d="M0 0 C0.85269722 -0.00521549 1.70539444 -0.01043099 2.58393097 -0.01580453 C3.99723316 -0.00911236 3.99723316 -0.00911236 5.43908691 -0.002285 C6.43577141 -0.00540498 7.4324559 -0.00852497 8.45934296 -0.01173949 C11.82048851 -0.01975762 15.18145543 -0.01338102 18.54260254 -0.00710678 C20.94356391 -0.00981495 23.34452445 -0.0133749 25.7454834 -0.0177269 C31.60267719 -0.02592263 37.45982409 -0.02469161 43.3170166 -0.01890162 C48.07572857 -0.01439157 52.83442616 -0.01376937 57.59313965 -0.01594925 C58.26947937 -0.01625572 58.94581908 -0.01656218 59.64265394 -0.01687793 C61.01646742 -0.01751736 62.39028089 -0.01816579 63.76409435 -0.01882312 C76.65745407 -0.02453122 89.55078538 -0.01796101 102.44414043 -0.00722238 C113.51603787 0.00171357 124.58789336 0.00016166 135.65979004 -0.00905991 C148.50585878 -0.01975408 161.35190259 -0.02398185 174.19797516 -0.01783538 C175.56683858 -0.01719826 176.935702 -0.01656951 178.30456543 -0.01594925 C179.31492269 -0.01548642 179.31492269 -0.01548642 180.3456912 -0.01501425 C185.10070613 -0.01328474 189.85570529 -0.0162079 194.61071777 -0.02090836 C201.00625836 -0.02709133 207.40173822 -0.02271245 213.79727173 -0.01111984 C216.15076566 -0.00846521 218.50426624 -0.00925192 220.85775757 -0.01364517 C224.05813618 -0.0190705 227.25825624 -0.01230329 230.45861816 -0.002285 C231.87192036 -0.00897717 231.87192036 -0.00897717 233.31377411 -0.01580453 C234.16647133 -0.01058903 235.01916855 -0.00537354 235.89770508 0 C236.63707558 0.0003247 237.37644608 0.00064941 238.13822174 0.00098395 C239.94885254 0.25168228 239.94885254 0.25168228 241.94885254 2.25168228 C242.07385254 5.37668228 242.07385254 5.37668228 241.94885254 8.25168228 C243.08322754 8.39605728 244.21760254 8.54043228 245.38635254 8.68918228 C248.94885254 9.25168228 248.94885254 9.25168228 249.94885254 10.25168228 C250.04841532 12.42430908 250.07684972 14.60021334 250.07824707 16.77511978 C250.08087555 17.79705429 250.08087555 17.79705429 250.08355713 18.83963394 C250.08797496 21.10200895 250.08503791 23.36430641 250.08166504 25.62668228 C250.0823381 27.19227488 250.08330814 28.75786738 250.08456421 30.32345963 C250.08604109 33.60878873 250.08388695 36.8940907 250.07922363 40.17941666 C250.07352634 44.39988744 250.0768054 48.62029464 250.0827961 52.84076309 C250.08640198 56.074848 250.085263 59.30891773 250.0826683 62.54300308 C250.08199911 64.09960309 250.08282719 65.65620446 250.08514786 67.21280289 C250.08767484 69.38465424 250.08383319 71.55640124 250.07824707 73.72824478 C250.07705368 75.58570328 250.07705368 75.58570328 250.07583618 77.48068619 C249.94885254 80.25168228 249.94885254 80.25168228 248.94885254 81.25168228 C246.48441197 81.34668777 244.04810628 81.37726213 241.58337402 81.36520767 C240.81269592 81.3653537 240.04201782 81.36549973 239.24798584 81.36565018 C236.68861115 81.36495088 234.12930834 81.35715773 231.56994629 81.34933853 C229.80017639 81.34747441 228.03040598 81.34605048 226.26063538 81.34505081 C221.59333888 81.34122516 216.92607331 81.33139448 212.25878906 81.32034683 C207.49988219 81.31013372 202.74097033 81.30555341 197.98205566 81.30051041 C188.63764101 81.28977225 179.29324934 81.27269527 169.94885254 81.25168228 C169.95023523 82.23981619 169.95023523 82.23981619 169.95164585 83.24791241 C169.9737009 99.2543572 169.990264 115.26079672 170.00066471 131.26725292 C170.00582771 139.0077551 170.01287047 146.74824715 170.02429199 154.48874283 C170.03423873 161.23295379 170.04070594 167.97715743 170.04294103 174.72137552 C170.04424816 178.29455094 170.04733412 181.86770539 170.0545826 185.4408741 C170.06259625 189.42330579 170.06284368 193.40571669 170.06237793 197.38815689 C170.06597321 198.58145615 170.06956848 199.7747554 170.07327271 201.00421524 C170.07189804 202.08260162 170.07052338 203.16098801 170.06910706 204.27205276 C170.07048975 205.6865441 170.07048975 205.6865441 170.07190037 207.12961102 C169.94885254 209.25168228 169.94885254 209.25168228 168.94885254 210.25168228 C166.27635186 210.35213281 163.62966673 210.38784877 160.95666504 210.38107681 C159.70064484 210.38370529 159.70064484 210.38370529 158.41925049 210.38638687 C155.6374304 210.39080629 152.85567333 210.38786708 150.07385254 210.38449478 C148.14953601 210.38516779 146.22521956 210.3861378 144.30090332 210.38739395 C140.26232089 210.38887105 136.22376053 210.38671599 132.18518066 210.38205338 C126.99616743 210.37635608 121.80720591 210.37963502 116.61819458 210.38562584 C112.64294034 210.38923114 108.66769845 210.38809301 104.69244385 210.38549805 C102.77858474 210.38482869 100.86472452 210.3856575 98.9508667 210.3879776 C96.28089404 210.39050362 93.61100634 210.38666426 90.94104004 210.38107681 C90.14204285 210.38310104 89.34304565 210.38512527 88.51983643 210.38721085 C83.06311503 210.36594478 83.06311503 210.36594478 81.94885254 209.25168228 C81.90792316 206.91870795 81.90643531 204.58463004 81.94885254 202.25168228 C80.24729004 202.28261978 80.24729004 202.28261978 78.51135254 202.31418228 C74.94885254 202.25168228 74.94885254 202.25168228 73.94885254 201.25168228 C73.8529713 199.69547832 73.82697221 198.13491774 73.82859802 196.5757637 C73.82653603 195.05915398 73.82653603 195.05915398 73.82443237 193.51190567 C73.82982529 191.83416565 73.82982529 191.83416565 73.83532715 190.12253189 C73.83518112 188.9519574 73.8350351 187.7813829 73.83488464 186.57533646 C73.83546359 183.35647285 73.84049263 180.13765225 73.8474586 176.91879725 C73.85369297 173.55820828 73.854296 170.19761855 73.85548401 166.83702469 C73.85859708 160.46925886 73.86681014 154.10151012 73.8768335 147.73375183 C73.88799539 140.48598499 73.89350528 133.23821735 73.89852893 125.99044406 C73.90899277 111.07751394 73.92659174 96.16459981 73.94885254 81.25168228 C73.06157974 81.25390289 72.17430695 81.2561235 71.26014709 81.25841141 C62.91640597 81.27841189 54.57267285 81.29365517 46.22891331 81.30349445 C41.93885339 81.30872289 37.64881321 81.31581981 33.35876465 81.32712173 C29.22205854 81.33795203 25.08537146 81.34395942 20.94865227 81.34655952 C19.3669295 81.34841352 17.78520783 81.35203364 16.20349312 81.35741234 C13.99562416 81.36462468 11.78783481 81.36567314 9.57995605 81.36520767 C7.69132591 81.36853859 7.69132591 81.36853859 5.76454163 81.3719368 C2.94885254 81.25168228 2.94885254 81.25168228 1.94885254 80.25168228 C1.90792316 77.91870795 1.90643531 75.58463004 1.94885254 73.25168228 C1.00010254 73.27230728 0.05135254 73.29293228 -0.92614746 73.31418228 C-4.05114746 73.25168228 -4.05114746 73.25168228 -6.05114746 72.25168228 C-6.09742809 63.15937427 -6.13299483 54.06710662 -6.1547718 44.97470665 C-6.16522211 40.75302478 -6.17940391 36.53142333 -6.20202637 32.30978775 C-6.22371049 28.23790951 -6.23570669 24.16610876 -6.24090195 20.09417725 C-6.2446057 18.53839141 -6.25183792 16.98260996 -6.26260757 15.42685699 C-6.27706384 13.25264854 -6.2791279 11.07876287 -6.27819824 8.90451431 C-6.28263947 7.66541306 -6.28708069 6.4263118 -6.29165649 5.14966202 C-5.91279624 0.58463867 -4.17978977 0.00183561 0 0 Z " fill="#010102" transform="translate(6.0511474609375,21.74831771850586)"/>
<path d="M0 0 C23.76 0 47.52 0 72 0 C72 18.81 72 37.62 72 57 C48.24 57 24.48 57 0 57 C0 38.19 0 19.38 0 0 Z " fill="#606ADC" transform="translate(88,159)"/>
<path d="M0 0 C23.76 0 47.52 0 72 0 C72 18.48 72 36.96 72 56 C48.24 56 24.48 56 0 56 C0 37.52 0 19.04 0 0 Z " fill="#606ADB" transform="translate(88,95)"/>
<path d="M0 0 C23.76 0 47.52 0 72 0 C72 18.48 72 36.96 72 56 C48.24 56 24.48 56 0 56 C0 37.52 0 19.04 0 0 Z " fill="#606ADB" transform="translate(168,31)"/>
<path d="M0 0 C23.76 0 47.52 0 72 0 C72 18.48 72 36.96 72 56 C48.24 56 24.48 56 0 56 C0 37.52 0 19.04 0 0 Z " fill="#606ADB" transform="translate(88,31)"/>
<path d="M0 0 C23.76 0 47.52 0 72 0 C72 18.48 72 36.96 72 56 C48.24 56 24.48 56 0 56 C0 37.52 0 19.04 0 0 Z " fill="#606ADB" transform="translate(8,31)"/>
</svg>
